<svg viewBox="0 0 24 24" xmlns="http://www.w3.org/2000/svg"><path d="m8.571 23.429a.571.571 0 0 1 -.571.571h-5.714a.571.571 0 0 1 0-1.143h5.714c.316 0 .571.256.571.572zm-.571-2.859h-1.143a.571.571 0 0 0 0 1.143h1.143a.571.571 0 0 0 0-1.143zm-5.714 1.143h2.284a.571.571 0 0 0 0-1.143h-2.284a.571.571 0 0 0 0 1.143zm5.714-3.427h-5.714a.571.571 0 0 0 0 1.143h5.714a.571.571 0 0 0 0-1.143zm8-2.286h-10.286a.571.571 0 0 0 0 1.143h10.286a.571.571 0 0 0 0-1.143zm-13.714 1.143h1.143a.571.571 0 0 0 0-1.143h-1.143a.571.571 0 0 0 0 1.143zm17.143-3.429h-3.429a.571.571 0 0 0 0 1.143h3.429a.571.571 0 0 0 0-1.143zm-10.286 1.143h4.571a.571.571 0 0 0 0-1.143h-4.571a.571.571 0 0 0 0 1.143zm-6.857 0h4.571a.571.571 0 0 0 0-1.143h-4.571a.571.571 0 0 0 0 1.143zm18.284-3.427h-9.14a.571.571 0 0 0 0 1.142h9.142a.571.571 0 0 0 0-1.142zm-10.856.57a.571.571 0 0 0 -.571-.571h-3.429a.571.571 0 0 0 0 1.142h3.429a.571.571 0 0 0 .571-.571zm-7.428.571h1.143a.571.571 0 0 0 0-1.142h-1.143a.571.571 0 0 0 0 1.142zm19.428-3.428h-5.714a.571.571 0 0 0 0 1.143h5.714a.571.571 0 0 0 0-1.143zm-19.428 1.143h5.714a.571.571 0 0 0 0-1.143h-5.714a.571.571 0 0 0 0 1.143zm13.143-2.857c0 .315.255.571.571.571h5.714a.571.571 0 0 0 0-1.143h-5.714a.571.571 0 0 0 -.571.572zm-8.572-.572a.571.571 0 0 0 0 1.143h1.143a.571.571 0 0 0 0-1.143zm-4.571 1.143h2.284a.571.571 0 0 0 0-1.143h-2.284a.571.571 0 0 0 0 1.143zm16.571-2.857c0 .315.256.571.572.571h1.142a.571.571 0 0 0 0-1.143h-1.141a.571.571 0 0 0 -.572.572zm-1.143 0a.571.571 0 0 0 -.571-.572h-4.573a.571.571 0 0 0 0 1.143h4.572a.571.571 0 0 0 .571-.571zm-15.428.571h8a.571.571 0 0 0 0-1.143h-8a.571.571 0 0 0 0 1.143zm5.143-2.857c0 .316.255.572.571.572h11.429a.571.571 0 0 0 0-1.143h-11.429a.571.571 0 0 0 -.571.571zm-5.143.572h3.428a.571.571 0 0 0 0-1.143h-3.428a.571.571 0 0 0 0 1.143zm0-2.286h13.714a.571.571 0 0 0 0-1.143h-13.714a.571.571 0 0 0 0 1.143z" fill="#f7b93e"/></svg>